PathFileType	4	(X/Y/Z)	C:\Github\FootballMatch-and-Movement-Analysis\output\test4 Exam_2026-03-06_143128_tvc1_Sports2D\test4 Exam_2026-03-06_143128_tvc1_Sports2D_px_person00.trc
DataRate	CameraRate	NumFrames	NumMarkers	Units	OrigDataRate	OrigDataStartFrame	OrigNumFrames
30.0	30.0	6	22	m	30.0	280	320
Frame#	Time	Hip			RHip			RKnee			RAnkle			RBigToe			RSmallToe			RHeel			LHip			LKnee			LAnkle			LBigToe			LSmallToe			LHeel			Neck			Head			Nose			RShoulder			RElbow			RWrist			LShoulder			LElbow			LWrist			
		X1	Y1	Z1	X2	Y2	Z2	X3	Y3	Z3	X4	Y4	Z4	X5	Y5	Z5	X6	Y6	Z6	X7	Y7	Z7	X8	Y8	Z8	X9	Y9	Z9	X10	Y10	Z10	X11	Y11	Z11	X12	Y12	Z12	X13	Y13	Z13	X14	Y14	Z14	X15	Y15	Z15	X16	Y16	Z16	X17	Y17	Z17	X18	Y18	Z18	X19	Y19	Z19	X20	Y20	Z20	X21	Y21	Z21	X22	Y22	Z22
280	9.362591431556949	388.24597232197686	636.0972851699058	0.0	382.64682063111127	652.0443633618268	0.0	380.9296152551478	823.7098793213684	0.0	427.29691009300865	1007.8483170109737	0.0	361.6788121371953	1031.9873941978678	0.0	375.79354413552846	1025.513792148105	0.0	451.25662287711	1025.3137786914147	0.0	403.4223358183718	644.7813394836361	0.0	380.8790511328943	829.051529391611	0.0	544.3281004815071	899.070719499029	0.0	536.8595903571054	994.9010852798169	0.0	551.1405523484515	985.3164212952087	0.0	569.3266394594648	890.8175014538216	0.0	366.8212785328194	386.955491024273	0.0	353.2522514340134	279.39753277914184	0.0	312.42325330782484	337.22019469295145	0.0	366.6911110474033	416.6565558484733	0.0	383.2931110965909	521.4666099038138	0.0	338.6417197413963	616.1639705295075	0.0	388.85508325409114	400.2719736047617	0.0	406.71806596432657	447.27510726240956	0.0	339.86410808135906	455.19044730747663	0.0
281	9.396029258098222	388.19991109641927	636.1101092686549	0.0	385.7675843816925	649.720130779191	0.0	379.6271318903221	823.5470650655207	0.0	427.5302474281671	1004.4062465673251	0.0	367.407231201207	1027.7351044608931	0.0	378.7258126761476	1024.5484587582262	0.0	452.1573160674152	1022.0352091367603	0.0	404.2390853246167	643.4536084475806	0.0	383.6715455781126	827.8584022766347	0.0	544.4142198175391	899.8322407717243	0.0	536.8526023233176	995.3237052259292	0.0	550.1222743311407	986.398255344847	0.0	567.8994781061604	891.6206700306209	0.0	368.7372765377861	386.6871624176332	0.0	353.2959818443777	278.5682781159876	0.0	312.7199464951998	336.68314097611903	0.0	368.22126277554327	415.64302514331877	0.0	384.7549138968643	519.9316339635759	0.0	340.2233047942667	617.6163410392278	0.0	389.26384449009856	400.28920189252057	0.0	406.7980609141429	446.83946411190755	0.0	340.06767897812335	455.4101502208106	0.0
282	9.429467084639498	388.59767880699303	636.6192208772956	0.0	390.32107874336816	647.3575038968596	0.0	379.1820609505282	823.4770382579163	0.0	427.58775621707815	1001.5007543406654	0.0	372.03820437512815	1024.0167759666488	0.0	380.4408693692943	1024.0030767434716	0.0	451.4157003272289	1018.9339909609843	0.0	404.67170956014905	642.0971820086841	0.0	383.6991510384739	826.6478012794232	0.0	544.2408732483632	901.2512057681774	0.0	537.1934773903213	994.176476067574	0.0	550.7883173154618	986.3877881179591	0.0	567.3989875378534	893.1292695575668	0.0	370.4397322028817	386.8823858926376	0.0	353.4253530802481	277.69992608222185	0.0	313.6708446600778	336.8758594315955	0.0	370.5875626778721	415.4956551646169	0.0	386.29933177696455	516.8788300094602	0.0	342.75218715738976	618.5882554971074	0.0	389.5536912128354	401.1474143769176	0.0	406.8933155888992	446.80478730394304	0.0	339.4798058628754	455.5599950302204	0.0
283	9.462904911180772	389.42368333183765	636.9986853604339	0.0	392.4671025978803	646.3418969386339	0.0	380.34355934335525	823.5600185985049	0.0	427.3980772882673	1001.4774540896399	0.0	370.7443488273961	1025.5629436937957	0.0	379.88188175545235	1024.5677577018985	0.0	450.1014845440571	1018.1103982503676	0.0	405.00480314951704	641.4169550704278	0.0	381.0672214944152	826.5706760416338	0.0	544.1439876491905	902.1420435556478	0.0	536.9865952898058	993.3757723869479	0.0	551.5200744795379	985.637419031756	0.0	567.9822171722681	893.751430532346	0.0	370.90692615965315	387.28864042356724	0.0	353.37841206593475	277.23475278059124	0.0	314.93344524865415	337.2646643659938	0.0	372.2254396533619	416.2729541320488	0.0	387.63782015379275	514.7190946836661	0.0	346.4766759636898	619.369615470348	0.0	389.52823424966823	402.07309777034976	0.0	407.25669006613816	446.7836152734895	0.0	339.0918472777508	455.6820971671077	0.0
284	9.496342737722047	390.15103910639436	636.9581390985037	0.0	392.1350389446021	645.7290858428499	0.0	381.33072631092136	823.7493958757067	0.0	427.1614993440903	1002.6964173792342	0.0	369.0257653024361	1028.1009628339382	0.0	379.5406733832647	1024.1735042798584	0.0	449.6425890979714	1018.6956346179014	0.0	405.1059531801177	640.7267177665345	0.0	379.12658668379913	827.204759511169	0.0	544.5877747166174	902.2990076882284	0.0	536.4295818807113	993.5891627462406	0.0	551.4189314168741	985.0837584308244	0.0	568.4976408389651	893.5676993353482	0.0	370.7925876368383	387.9125516825216	0.0	353.09300405081336	277.0420606907649	0.0	315.74950944375723	337.1830412076125	0.0	372.3773877531266	417.5604609666262	0.0	388.6791196079736	514.3072695371027	0.0	349.7997641661069	620.0643562475577	0.0	389.61556696339875	403.09284564469647	0.0	407.8806829162826	446.8208517066118	0.0	338.89990760901645	455.9287571788129	0.0
285	9.529780564263321	390.3567081888227	636.9385131735486	0.0	392.323553084121	644.5474397590436	0.0	380.96442622724345	823.398795811242	0.0	426.8727745854226	1003.2290252634948	0.0	370.5400421319009	1027.68560992983	0.0	380.21994994894953	1022.28737077017	0.0	449.8882011895109	1019.138759547918	0.0	404.5536447621965	639.6209129519103	0.0	379.29041267165456	827.2213354590848	0.0	545.1482060696072	903.4722529417679	0.0	535.7410017900154	994.2029181646736	0.0	550.9222806893341	985.6368983121403	0.0	568.3233018326737	895.0213834727596	0.0	371.2446355658247	388.74264320405587	0.0	352.76464062488674	276.8220765652709	0.0	315.9471418743216	336.8177913796965	0.0	372.2974767331288	418.4975902065229	0.0	389.64183213289147	514.5864416386282	0.0	351.1749792768113	620.0439534951513	0.0	390.03332369515203	404.15022672862597	0.0	408.5137108783723	447.23185565506304	0.0	338.9380706725225	456.2401051397387	0.0
